<mxfile host="app.diagrams.net" modified="2023-09-08T08:03:40.436Z" agent="Mozilla/5.0 (Windows NT 10.0; Win64; x64) AppleWebKit/537.36 (KHTML, like Gecko) Chrome/116.0.0.0 Safari/537.36" etag="pNKCSQH27BlzM3kltf5q" version="21.7.2" type="github">
  <diagram name="Trang-1" id="PsYrwI9fsZ6Q3PtYRu_c">
    <mxGraphModel dx="1050" dy="534" grid="1" gridSize="10" guides="1" tooltips="1" connect="1" arrows="1" fold="1" page="1" pageScale="1" pageWidth="850" pageHeight="1100" math="0" shadow="0">
      <root>
        <mxCell id="0" />
        <mxCell id="1" parent="0" />
        <mxCell id="c23t6SocqqBq3Zf7pJmv-3" value="" style="edgeStyle=orthogonalEdgeStyle;rounded=0;orthogonalLoop=1;jettySize=auto;html=1;" edge="1" parent="1" source="c23t6SocqqBq3Zf7pJmv-1" target="c23t6SocqqBq3Zf7pJmv-2">
          <mxGeometry relative="1" as="geometry">
            <Array as="points">
              <mxPoint x="250" y="240" />
              <mxPoint x="250" y="240" />
            </Array>
          </mxGeometry>
        </mxCell>
        <mxCell id="c23t6SocqqBq3Zf7pJmv-1" value="Đăng nhập/Đăng ký" style="rounded=1;whiteSpace=wrap;html=1;" vertex="1" parent="1">
          <mxGeometry x="80" y="200" width="120" height="80" as="geometry" />
        </mxCell>
        <mxCell id="c23t6SocqqBq3Zf7pJmv-7" style="edgeStyle=orthogonalEdgeStyle;rounded=0;orthogonalLoop=1;jettySize=auto;html=1;exitX=1;exitY=0.5;exitDx=0;exitDy=0;entryX=0;entryY=0.5;entryDx=0;entryDy=0;" edge="1" parent="1" source="c23t6SocqqBq3Zf7pJmv-2" target="c23t6SocqqBq3Zf7pJmv-5">
          <mxGeometry relative="1" as="geometry">
            <Array as="points">
              <mxPoint x="400" y="90" />
            </Array>
          </mxGeometry>
        </mxCell>
        <mxCell id="c23t6SocqqBq3Zf7pJmv-9" style="edgeStyle=orthogonalEdgeStyle;rounded=0;orthogonalLoop=1;jettySize=auto;html=1;exitX=1;exitY=0.5;exitDx=0;exitDy=0;entryX=0;entryY=0.5;entryDx=0;entryDy=0;" edge="1" parent="1" source="c23t6SocqqBq3Zf7pJmv-2" target="c23t6SocqqBq3Zf7pJmv-8">
          <mxGeometry relative="1" as="geometry">
            <Array as="points">
              <mxPoint x="400" y="390" />
              <mxPoint x="500" y="390" />
            </Array>
          </mxGeometry>
        </mxCell>
        <mxCell id="c23t6SocqqBq3Zf7pJmv-15" value="" style="edgeStyle=orthogonalEdgeStyle;rounded=0;orthogonalLoop=1;jettySize=auto;html=1;" edge="1" parent="1" source="c23t6SocqqBq3Zf7pJmv-2" target="c23t6SocqqBq3Zf7pJmv-14">
          <mxGeometry relative="1" as="geometry" />
        </mxCell>
        <mxCell id="c23t6SocqqBq3Zf7pJmv-2" value="Điền thông tin cá nhân" style="ellipse;whiteSpace=wrap;html=1;rounded=1;" vertex="1" parent="1">
          <mxGeometry x="280" y="200" width="120" height="80" as="geometry" />
        </mxCell>
        <mxCell id="c23t6SocqqBq3Zf7pJmv-11" value="" style="edgeStyle=orthogonalEdgeStyle;rounded=0;orthogonalLoop=1;jettySize=auto;html=1;" edge="1" parent="1" source="c23t6SocqqBq3Zf7pJmv-5" target="c23t6SocqqBq3Zf7pJmv-10">
          <mxGeometry relative="1" as="geometry" />
        </mxCell>
        <mxCell id="c23t6SocqqBq3Zf7pJmv-5" value="Thư viên trắc nghiệm" style="shape=parallelogram;perimeter=parallelogramPerimeter;whiteSpace=wrap;html=1;fixedSize=1;" vertex="1" parent="1">
          <mxGeometry x="490" y="60" width="140" height="60" as="geometry" />
        </mxCell>
        <mxCell id="c23t6SocqqBq3Zf7pJmv-13" value="" style="edgeStyle=orthogonalEdgeStyle;rounded=0;orthogonalLoop=1;jettySize=auto;html=1;" edge="1" parent="1" source="c23t6SocqqBq3Zf7pJmv-8" target="c23t6SocqqBq3Zf7pJmv-12">
          <mxGeometry relative="1" as="geometry" />
        </mxCell>
        <mxCell id="c23t6SocqqBq3Zf7pJmv-8" value="Thêm bộ trắc nghiệm&lt;br&gt;mới" style="shape=parallelogram;perimeter=parallelogramPerimeter;whiteSpace=wrap;html=1;fixedSize=1;" vertex="1" parent="1">
          <mxGeometry x="490" y="360" width="140" height="60" as="geometry" />
        </mxCell>
        <mxCell id="c23t6SocqqBq3Zf7pJmv-17" value="" style="edgeStyle=orthogonalEdgeStyle;rounded=0;orthogonalLoop=1;jettySize=auto;html=1;" edge="1" parent="1" source="c23t6SocqqBq3Zf7pJmv-10" target="c23t6SocqqBq3Zf7pJmv-16">
          <mxGeometry relative="1" as="geometry" />
        </mxCell>
        <mxCell id="c23t6SocqqBq3Zf7pJmv-10" value="Chọn đề tài trắc &lt;br&gt;nghiệm" style="shape=parallelogram;perimeter=parallelogramPerimeter;whiteSpace=wrap;html=1;fixedSize=1;" vertex="1" parent="1">
          <mxGeometry x="710" y="60" width="140" height="60" as="geometry" />
        </mxCell>
        <mxCell id="c23t6SocqqBq3Zf7pJmv-22" style="edgeStyle=orthogonalEdgeStyle;rounded=0;orthogonalLoop=1;jettySize=auto;html=1;exitX=1;exitY=0.5;exitDx=0;exitDy=0;entryX=0;entryY=0.5;entryDx=0;entryDy=0;" edge="1" parent="1" source="c23t6SocqqBq3Zf7pJmv-12" target="c23t6SocqqBq3Zf7pJmv-20">
          <mxGeometry relative="1" as="geometry" />
        </mxCell>
        <mxCell id="c23t6SocqqBq3Zf7pJmv-24" value="" style="edgeStyle=orthogonalEdgeStyle;rounded=0;orthogonalLoop=1;jettySize=auto;html=1;" edge="1" parent="1" source="c23t6SocqqBq3Zf7pJmv-12" target="c23t6SocqqBq3Zf7pJmv-23">
          <mxGeometry relative="1" as="geometry" />
        </mxCell>
        <mxCell id="c23t6SocqqBq3Zf7pJmv-25" value="" style="edgeStyle=orthogonalEdgeStyle;rounded=0;orthogonalLoop=1;jettySize=auto;html=1;" edge="1" parent="1" source="c23t6SocqqBq3Zf7pJmv-12" target="c23t6SocqqBq3Zf7pJmv-23">
          <mxGeometry relative="1" as="geometry" />
        </mxCell>
        <mxCell id="c23t6SocqqBq3Zf7pJmv-27" style="edgeStyle=orthogonalEdgeStyle;rounded=0;orthogonalLoop=1;jettySize=auto;html=1;exitX=1;exitY=0.5;exitDx=0;exitDy=0;entryX=0;entryY=0.5;entryDx=0;entryDy=0;" edge="1" parent="1" source="c23t6SocqqBq3Zf7pJmv-12" target="c23t6SocqqBq3Zf7pJmv-26">
          <mxGeometry relative="1" as="geometry" />
        </mxCell>
        <mxCell id="c23t6SocqqBq3Zf7pJmv-12" value="Lĩnh vực ?" style="ellipse;whiteSpace=wrap;html=1;" vertex="1" parent="1">
          <mxGeometry x="740" y="350" width="80" height="80" as="geometry" />
        </mxCell>
        <mxCell id="c23t6SocqqBq3Zf7pJmv-14" value="Hỗ trợ !" style="ellipse;whiteSpace=wrap;html=1;rounded=1;" vertex="1" parent="1">
          <mxGeometry x="480" y="200" width="120" height="80" as="geometry" />
        </mxCell>
        <mxCell id="c23t6SocqqBq3Zf7pJmv-19" value="" style="edgeStyle=orthogonalEdgeStyle;rounded=0;orthogonalLoop=1;jettySize=auto;html=1;" edge="1" parent="1" source="c23t6SocqqBq3Zf7pJmv-16" target="c23t6SocqqBq3Zf7pJmv-18">
          <mxGeometry relative="1" as="geometry" />
        </mxCell>
        <mxCell id="c23t6SocqqBq3Zf7pJmv-16" value="Lĩnh vực/Môn học" style="rhombus;whiteSpace=wrap;html=1;" vertex="1" parent="1">
          <mxGeometry x="960" y="50" width="130" height="80" as="geometry" />
        </mxCell>
        <mxCell id="c23t6SocqqBq3Zf7pJmv-18" value="Hiện thị thông báo/Hướng dẫn cách làm bài trắc nghiệm" style="ellipse;whiteSpace=wrap;html=1;" vertex="1" parent="1">
          <mxGeometry x="1195" y="50" width="205" height="80" as="geometry" />
        </mxCell>
        <mxCell id="c23t6SocqqBq3Zf7pJmv-20" value="Thêm" style="whiteSpace=wrap;html=1;" vertex="1" parent="1">
          <mxGeometry x="880" y="260" width="120" height="60" as="geometry" />
        </mxCell>
        <mxCell id="c23t6SocqqBq3Zf7pJmv-23" value="Xóa" style="whiteSpace=wrap;html=1;" vertex="1" parent="1">
          <mxGeometry x="880" y="360" width="120" height="60" as="geometry" />
        </mxCell>
        <mxCell id="c23t6SocqqBq3Zf7pJmv-26" value="Sửa/Update" style="whiteSpace=wrap;html=1;" vertex="1" parent="1">
          <mxGeometry x="880" y="460" width="120" height="60" as="geometry" />
        </mxCell>
      </root>
    </mxGraphModel>
  </diagram>
</mxfile>
